<mxfile host="app.diagrams.net" agent="Mozilla/5.0 (Windows NT 10.0; Win64; x64) AppleWebKit/537.36 (KHTML, like Gecko) Chrome/130.0.0.0 Safari/537.36" version="24.8.4">
  <diagram name="Page-1" id="dGkdcWEwHqb5eI0WN991">
    <mxGraphModel dx="1050" dy="522" grid="0" gridSize="10" guides="1" tooltips="1" connect="1" arrows="1" fold="1" page="0" pageScale="1" pageWidth="850" pageHeight="1100" math="0" shadow="0">
      <root>
        <mxCell id="0" />
        <mxCell id="1" parent="0" />
        <mxCell id="OdxFn6sbGUlg3Z93NH0t-1" value="IDataAccess" style="swimlane;fontStyle=1;align=center;verticalAlign=top;childLayout=stackLayout;horizontal=1;startSize=26;horizontalStack=0;resizeParent=1;resizeParentMax=0;resizeLast=0;collapsible=1;marginBottom=0;whiteSpace=wrap;html=1;fillColor=#b1ddf0;strokeColor=#10739e;" parent="1" vertex="1">
          <mxGeometry x="74" y="218" width="354" height="148" as="geometry" />
        </mxCell>
        <mxCell id="OdxFn6sbGUlg3Z93NH0t-2" value="&amp;nbsp;" style="text;strokeColor=none;fillColor=none;align=left;verticalAlign=top;spacingLeft=4;spacingRight=4;overflow=hidden;rotatable=0;points=[[0,0.5],[1,0.5]];portConstraint=eastwest;whiteSpace=wrap;html=1;" parent="OdxFn6sbGUlg3Z93NH0t-1" vertex="1">
          <mxGeometry y="26" width="354" height="26" as="geometry" />
        </mxCell>
        <mxCell id="OdxFn6sbGUlg3Z93NH0t-3" value="" style="line;strokeWidth=1;fillColor=none;align=left;verticalAlign=middle;spacingTop=-1;spacingLeft=3;spacingRight=3;rotatable=0;labelPosition=right;points=[];portConstraint=eastwest;strokeColor=inherit;" parent="OdxFn6sbGUlg3Z93NH0t-1" vertex="1">
          <mxGeometry y="52" width="354" height="8" as="geometry" />
        </mxCell>
        <mxCell id="OdxFn6sbGUlg3Z93NH0t-4" value="+ &lt;i&gt;save_config&lt;/i&gt;(runnable_name: String, data: Dictionary): Void&lt;div&gt;+ &lt;i&gt;load_config&lt;/i&gt;(runnable_name: String): Dictionary&lt;/div&gt;&lt;div&gt;+ &lt;i&gt;save_main_runnables&lt;/i&gt;(runnables: Dictionary): Void&lt;/div&gt;&lt;div&gt;+ &lt;i&gt;load_main_runnables&lt;/i&gt;(): Dictionary&lt;/div&gt;&lt;div&gt;+ &lt;i&gt;clear_history&lt;/i&gt;(): Void&lt;/div&gt;" style="text;strokeColor=none;fillColor=none;align=left;verticalAlign=top;spacingLeft=4;spacingRight=4;overflow=hidden;rotatable=0;points=[[0,0.5],[1,0.5]];portConstraint=eastwest;whiteSpace=wrap;html=1;" parent="OdxFn6sbGUlg3Z93NH0t-1" vertex="1">
          <mxGeometry y="60" width="354" height="88" as="geometry" />
        </mxCell>
        <mxCell id="OdxFn6sbGUlg3Z93NH0t-9" style="edgeStyle=orthogonalEdgeStyle;rounded=0;orthogonalLoop=1;jettySize=auto;html=1;endArrow=block;endFill=0;endSize=20;strokeColor=default;" parent="1" source="OdxFn6sbGUlg3Z93NH0t-5" target="OdxFn6sbGUlg3Z93NH0t-1" edge="1">
          <mxGeometry relative="1" as="geometry" />
        </mxCell>
        <mxCell id="OdxFn6sbGUlg3Z93NH0t-5" value="DataAccess" style="swimlane;fontStyle=1;align=center;verticalAlign=top;childLayout=stackLayout;horizontal=1;startSize=26;horizontalStack=0;resizeParent=1;resizeParentMax=0;resizeLast=0;collapsible=1;marginBottom=0;whiteSpace=wrap;html=1;fillColor=#b1ddf0;strokeColor=#10739e;" parent="1" vertex="1">
          <mxGeometry x="149.5" y="456" width="203" height="86" as="geometry" />
        </mxCell>
        <mxCell id="OdxFn6sbGUlg3Z93NH0t-6" value="- __app_data_path: String" style="text;strokeColor=none;fillColor=none;align=left;verticalAlign=top;spacingLeft=4;spacingRight=4;overflow=hidden;rotatable=0;points=[[0,0.5],[1,0.5]];portConstraint=eastwest;whiteSpace=wrap;html=1;" parent="OdxFn6sbGUlg3Z93NH0t-5" vertex="1">
          <mxGeometry y="26" width="203" height="26" as="geometry" />
        </mxCell>
        <mxCell id="OdxFn6sbGUlg3Z93NH0t-7" value="" style="line;strokeWidth=1;fillColor=none;align=left;verticalAlign=middle;spacingTop=-1;spacingLeft=3;spacingRight=3;rotatable=0;labelPosition=right;points=[];portConstraint=eastwest;strokeColor=inherit;" parent="OdxFn6sbGUlg3Z93NH0t-5" vertex="1">
          <mxGeometry y="52" width="203" height="8" as="geometry" />
        </mxCell>
        <mxCell id="OdxFn6sbGUlg3Z93NH0t-8" value="+ DataAccess()" style="text;strokeColor=none;fillColor=none;align=left;verticalAlign=top;spacingLeft=4;spacingRight=4;overflow=hidden;rotatable=0;points=[[0,0.5],[1,0.5]];portConstraint=eastwest;whiteSpace=wrap;html=1;" parent="OdxFn6sbGUlg3Z93NH0t-5" vertex="1">
          <mxGeometry y="60" width="203" height="26" as="geometry" />
        </mxCell>
        <mxCell id="OdxFn6sbGUlg3Z93NH0t-10" value="Argument" style="swimlane;fontStyle=1;align=center;verticalAlign=top;childLayout=stackLayout;horizontal=1;startSize=26;horizontalStack=0;resizeParent=1;resizeParentMax=0;resizeLast=0;collapsible=1;marginBottom=0;whiteSpace=wrap;html=1;fillColor=#b1ddf0;strokeColor=#10739e;" parent="1" vertex="1">
          <mxGeometry x="1027" y="218" width="269" height="341" as="geometry" />
        </mxCell>
        <mxCell id="OdxFn6sbGUlg3Z93NH0t-11" value="- __id: String&lt;div&gt;- __second_id: String&lt;/div&gt;&lt;div&gt;- __help: String&lt;/div&gt;&lt;div&gt;- __default: String&lt;/div&gt;&lt;div&gt;- __required: Bool&lt;/div&gt;&lt;div&gt;- __type: String&lt;/div&gt;&lt;div&gt;- __action: String&lt;/div&gt;&lt;div&gt;- __choices: List&lt;/div&gt;" style="text;strokeColor=none;fillColor=none;align=left;verticalAlign=top;spacingLeft=4;spacingRight=4;overflow=hidden;rotatable=0;points=[[0,0.5],[1,0.5]];portConstraint=eastwest;whiteSpace=wrap;html=1;" parent="OdxFn6sbGUlg3Z93NH0t-10" vertex="1">
          <mxGeometry y="26" width="269" height="126" as="geometry" />
        </mxCell>
        <mxCell id="OdxFn6sbGUlg3Z93NH0t-12" value="" style="line;strokeWidth=1;fillColor=none;align=left;verticalAlign=middle;spacingTop=-1;spacingLeft=3;spacingRight=3;rotatable=0;labelPosition=right;points=[];portConstraint=eastwest;strokeColor=inherit;" parent="OdxFn6sbGUlg3Z93NH0t-10" vertex="1">
          <mxGeometry y="152" width="269" height="8" as="geometry" />
        </mxCell>
        <mxCell id="OdxFn6sbGUlg3Z93NH0t-13" value="+ Argument(id: String,&amp;nbsp;&lt;span style=&quot;background-color: initial;&quot;&gt;second_id: String,&amp;nbsp;&lt;/span&gt;&lt;span style=&quot;background-color: initial;&quot;&gt;help: String,&amp;nbsp;&lt;/span&gt;&lt;span style=&quot;background-color: initial;&quot;&gt;default: String,&amp;nbsp;&lt;/span&gt;&lt;span style=&quot;background-color: initial;&quot;&gt;required: Bool,&amp;nbsp;&lt;/span&gt;&lt;span style=&quot;background-color: initial;&quot;&gt;type: String,&amp;nbsp;&lt;/span&gt;&lt;span style=&quot;background-color: initial;&quot;&gt;action: String,&amp;nbsp;&lt;/span&gt;&lt;span style=&quot;background-color: initial;&quot;&gt;choices: List)&lt;/span&gt;&lt;div&gt;+ get_id(): String&lt;br&gt;&lt;div&gt;&lt;span style=&quot;background-color: initial;&quot;&gt;+ get_&lt;/span&gt;second_id&lt;span style=&quot;background-color: initial;&quot;&gt;()&lt;/span&gt;&lt;span style=&quot;background-color: initial;&quot;&gt;: String&lt;/span&gt;&lt;/div&gt;&lt;div&gt;&lt;span style=&quot;background-color: initial;&quot;&gt;+ get_&lt;/span&gt;help&lt;span style=&quot;background-color: initial;&quot;&gt;()&lt;/span&gt;&lt;span style=&quot;background-color: initial;&quot;&gt;: String&lt;/span&gt;&lt;/div&gt;&lt;div&gt;&lt;span style=&quot;background-color: initial;&quot;&gt;+ get_&lt;/span&gt;default&lt;span style=&quot;background-color: initial;&quot;&gt;()&lt;/span&gt;&lt;span style=&quot;background-color: initial;&quot;&gt;: String&lt;/span&gt;&lt;/div&gt;&lt;div&gt;&lt;span style=&quot;background-color: initial;&quot;&gt;+ get_&lt;/span&gt;required&lt;span style=&quot;background-color: initial;&quot;&gt;()&lt;/span&gt;&lt;span style=&quot;background-color: initial;&quot;&gt;: Bool&lt;/span&gt;&lt;/div&gt;&lt;div&gt;&lt;span style=&quot;background-color: initial;&quot;&gt;+ get_&lt;/span&gt;type&lt;span style=&quot;background-color: initial;&quot;&gt;()&lt;/span&gt;&lt;span style=&quot;background-color: initial;&quot;&gt;: String&lt;/span&gt;&lt;/div&gt;&lt;div&gt;&lt;span style=&quot;background-color: initial;&quot;&gt;+ get_&lt;/span&gt;action&lt;span style=&quot;background-color: initial;&quot;&gt;()&lt;/span&gt;&lt;span style=&quot;background-color: initial;&quot;&gt;: String&lt;/span&gt;&lt;/div&gt;&lt;div&gt;&lt;span style=&quot;background-color: initial;&quot;&gt;+ get_&lt;/span&gt;choices&lt;span style=&quot;background-color: initial;&quot;&gt;()&lt;/span&gt;&lt;span style=&quot;background-color: initial;&quot;&gt;: List&lt;/span&gt;&lt;/div&gt;&lt;/div&gt;" style="text;strokeColor=none;fillColor=none;align=left;verticalAlign=top;spacingLeft=4;spacingRight=4;overflow=hidden;rotatable=0;points=[[0,0.5],[1,0.5]];portConstraint=eastwest;whiteSpace=wrap;html=1;" parent="OdxFn6sbGUlg3Z93NH0t-10" vertex="1">
          <mxGeometry y="160" width="269" height="181" as="geometry" />
        </mxCell>
        <mxCell id="OdxFn6sbGUlg3Z93NH0t-14" value="FileInfo" style="swimlane;fontStyle=1;align=center;verticalAlign=top;childLayout=stackLayout;horizontal=1;startSize=26;horizontalStack=0;resizeParent=1;resizeParentMax=0;resizeLast=0;collapsible=1;marginBottom=0;whiteSpace=wrap;html=1;fillColor=#b1ddf0;strokeColor=#10739e;" parent="1" vertex="1">
          <mxGeometry x="1027" y="660" width="269" height="259" as="geometry" />
        </mxCell>
        <mxCell id="OdxFn6sbGUlg3Z93NH0t-15" value="- __prog_path: String&lt;div&gt;- __prog_name: String&lt;/div&gt;&lt;div&gt;- __prog_description: String&lt;/div&gt;&lt;div&gt;- __args: List&lt;/div&gt;&lt;div&gt;-__main_runnable: Bool&lt;/div&gt;" style="text;strokeColor=none;fillColor=none;align=left;verticalAlign=top;spacingLeft=4;spacingRight=4;overflow=hidden;rotatable=0;points=[[0,0.5],[1,0.5]];portConstraint=eastwest;whiteSpace=wrap;html=1;" parent="OdxFn6sbGUlg3Z93NH0t-14" vertex="1">
          <mxGeometry y="26" width="269" height="82" as="geometry" />
        </mxCell>
        <mxCell id="OdxFn6sbGUlg3Z93NH0t-16" value="" style="line;strokeWidth=1;fillColor=none;align=left;verticalAlign=middle;spacingTop=-1;spacingLeft=3;spacingRight=3;rotatable=0;labelPosition=right;points=[];portConstraint=eastwest;strokeColor=inherit;" parent="OdxFn6sbGUlg3Z93NH0t-14" vertex="1">
          <mxGeometry y="108" width="269" height="8" as="geometry" />
        </mxCell>
        <mxCell id="OdxFn6sbGUlg3Z93NH0t-17" value="+ FileInfo(prog_path: String, prog_name: String, prog_description: String)&lt;div&gt;+ add_argument(arg: Argument): Void&lt;/div&gt;&lt;div&gt;&lt;span style=&quot;background-color: initial;&quot;&gt;+ get_prog_path(): String&lt;/span&gt;&lt;div&gt;&lt;div&gt;&lt;span style=&quot;background-color: initial;&quot;&gt;+ get_prog_name&lt;/span&gt;&lt;span style=&quot;background-color: initial;&quot;&gt;()&lt;/span&gt;&lt;span style=&quot;background-color: initial;&quot;&gt;: String&lt;/span&gt;&lt;/div&gt;&lt;div&gt;&lt;span style=&quot;background-color: initial;&quot;&gt;+ get_description&lt;/span&gt;&lt;span style=&quot;background-color: initial;&quot;&gt;()&lt;/span&gt;&lt;span style=&quot;background-color: initial;&quot;&gt;: String&lt;/span&gt;&lt;/div&gt;&lt;div&gt;&lt;span style=&quot;background-color: initial;&quot;&gt;+ get_args&lt;/span&gt;&lt;span style=&quot;background-color: initial;&quot;&gt;()&lt;/span&gt;&lt;span style=&quot;background-color: initial;&quot;&gt;: List&lt;/span&gt;&lt;/div&gt;&lt;/div&gt;&lt;/div&gt;&lt;div&gt;&lt;span style=&quot;background-color: initial;&quot;&gt;+ get_main_runnable(): Bool&lt;/span&gt;&lt;/div&gt;&lt;div&gt;&lt;span style=&quot;background-color: initial;&quot;&gt;+ set_main_runnable(main: Bool): Void&lt;/span&gt;&lt;/div&gt;" style="text;strokeColor=none;fillColor=none;align=left;verticalAlign=top;spacingLeft=4;spacingRight=4;overflow=hidden;rotatable=0;points=[[0,0.5],[1,0.5]];portConstraint=eastwest;whiteSpace=wrap;html=1;" parent="OdxFn6sbGUlg3Z93NH0t-14" vertex="1">
          <mxGeometry y="116" width="269" height="143" as="geometry" />
        </mxCell>
        <mxCell id="OdxFn6sbGUlg3Z93NH0t-18" value="ArgumentVisitor" style="swimlane;fontStyle=1;align=center;verticalAlign=top;childLayout=stackLayout;horizontal=1;startSize=26;horizontalStack=0;resizeParent=1;resizeParentMax=0;resizeLast=0;collapsible=1;marginBottom=0;whiteSpace=wrap;html=1;fillColor=#b1ddf0;strokeColor=#10739e;" parent="1" vertex="1">
          <mxGeometry x="116.5" y="767" width="269" height="112" as="geometry" />
        </mxCell>
        <mxCell id="OdxFn6sbGUlg3Z93NH0t-19" value="+ parsers: Dictionary&lt;div&gt;&lt;br&gt;&lt;/div&gt;" style="text;strokeColor=none;fillColor=none;align=left;verticalAlign=top;spacingLeft=4;spacingRight=4;overflow=hidden;rotatable=0;points=[[0,0.5],[1,0.5]];portConstraint=eastwest;whiteSpace=wrap;html=1;" parent="OdxFn6sbGUlg3Z93NH0t-18" vertex="1">
          <mxGeometry y="26" width="269" height="24" as="geometry" />
        </mxCell>
        <mxCell id="OdxFn6sbGUlg3Z93NH0t-20" value="" style="line;strokeWidth=1;fillColor=none;align=left;verticalAlign=middle;spacingTop=-1;spacingLeft=3;spacingRight=3;rotatable=0;labelPosition=right;points=[];portConstraint=eastwest;strokeColor=inherit;" parent="OdxFn6sbGUlg3Z93NH0t-18" vertex="1">
          <mxGeometry y="50" width="269" height="8" as="geometry" />
        </mxCell>
        <mxCell id="OdxFn6sbGUlg3Z93NH0t-21" value="+ ArgumentVisitor()&lt;div&gt;+ visit_assign(node: ast.Assign): Void&lt;br&gt;+ visit_call(node: ast): Tuple&lt;/div&gt;" style="text;strokeColor=none;fillColor=none;align=left;verticalAlign=top;spacingLeft=4;spacingRight=4;overflow=hidden;rotatable=0;points=[[0,0.5],[1,0.5]];portConstraint=eastwest;whiteSpace=wrap;html=1;" parent="OdxFn6sbGUlg3Z93NH0t-18" vertex="1">
          <mxGeometry y="58" width="269" height="54" as="geometry" />
        </mxCell>
        <mxCell id="OdxFn6sbGUlg3Z93NH0t-26" value="ast.NodeVisitor" style="swimlane;fontStyle=1;align=center;verticalAlign=middle;childLayout=stackLayout;horizontal=1;startSize=29;horizontalStack=0;resizeParent=1;resizeParentMax=0;resizeLast=0;collapsible=0;marginBottom=0;html=1;whiteSpace=wrap;fillColor=#b1ddf0;strokeColor=#10739e;" parent="1" vertex="1">
          <mxGeometry x="181.5" y="612" width="140" height="54" as="geometry" />
        </mxCell>
        <mxCell id="OdxFn6sbGUlg3Z93NH0t-28" value="..." style="text;html=1;strokeColor=none;fillColor=none;align=center;verticalAlign=middle;spacingLeft=4;spacingRight=4;overflow=hidden;rotatable=0;points=[[0,0.5],[1,0.5]];portConstraint=eastwest;whiteSpace=wrap;" parent="OdxFn6sbGUlg3Z93NH0t-26" vertex="1">
          <mxGeometry y="29" width="140" height="25" as="geometry" />
        </mxCell>
        <mxCell id="OdxFn6sbGUlg3Z93NH0t-37" style="edgeStyle=orthogonalEdgeStyle;rounded=0;orthogonalLoop=1;jettySize=auto;html=1;endArrow=diamondThin;endFill=1;endSize=25;" parent="1" source="OdxFn6sbGUlg3Z93NH0t-29" target="OdxFn6sbGUlg3Z93NH0t-1" edge="1">
          <mxGeometry relative="1" as="geometry">
            <Array as="points">
              <mxPoint x="555" y="292" />
              <mxPoint x="555" y="292" />
            </Array>
          </mxGeometry>
        </mxCell>
        <mxCell id="OdxFn6sbGUlg3Z93NH0t-38" style="edgeStyle=orthogonalEdgeStyle;rounded=0;orthogonalLoop=1;jettySize=auto;html=1;endArrow=open;endFill=0;endSize=15;dashed=1;dashPattern=8 8;" parent="1" source="OdxFn6sbGUlg3Z93NH0t-29" target="OdxFn6sbGUlg3Z93NH0t-18" edge="1">
          <mxGeometry relative="1" as="geometry">
            <Array as="points">
              <mxPoint x="443" y="403" />
              <mxPoint x="443" y="823" />
            </Array>
          </mxGeometry>
        </mxCell>
        <mxCell id="OdxFn6sbGUlg3Z93NH0t-29" value="Model" style="swimlane;fontStyle=1;align=center;verticalAlign=top;childLayout=stackLayout;horizontal=1;startSize=26;horizontalStack=0;resizeParent=1;resizeParentMax=0;resizeLast=0;collapsible=1;marginBottom=0;whiteSpace=wrap;html=1;fillColor=#b1ddf0;strokeColor=#10739e;" parent="1" vertex="1">
          <mxGeometry x="590" y="218" width="277" height="365" as="geometry" />
        </mxCell>
        <mxCell id="OdxFn6sbGUlg3Z93NH0t-30" value="- __working_directory_path: String&lt;div&gt;- __runnables: List&lt;/div&gt;&lt;div&gt;- __data_access: DataAccess&lt;/div&gt;" style="text;strokeColor=none;fillColor=none;align=left;verticalAlign=top;spacingLeft=4;spacingRight=4;overflow=hidden;rotatable=0;points=[[0,0.5],[1,0.5]];portConstraint=eastwest;whiteSpace=wrap;html=1;" parent="OdxFn6sbGUlg3Z93NH0t-29" vertex="1">
          <mxGeometry y="26" width="277" height="60" as="geometry" />
        </mxCell>
        <mxCell id="OdxFn6sbGUlg3Z93NH0t-31" value="" style="line;strokeWidth=1;fillColor=none;align=left;verticalAlign=middle;spacingTop=-1;spacingLeft=3;spacingRight=3;rotatable=0;labelPosition=right;points=[];portConstraint=eastwest;strokeColor=inherit;" parent="OdxFn6sbGUlg3Z93NH0t-29" vertex="1">
          <mxGeometry y="86" width="277" height="8" as="geometry" />
        </mxCell>
        <mxCell id="OdxFn6sbGUlg3Z93NH0t-32" value="+ Model(dir: String)&lt;div&gt;+ add_working_directory(path: String): Void&lt;br&gt;&lt;div&gt;+ add_default_paths(): Void&lt;/div&gt;&lt;div&gt;+ get_runnables(): List&lt;/div&gt;&lt;div&gt;+ get_main_runnables(): List&lt;br&gt;+ __find_all_runnable(): Void&lt;/div&gt;&lt;div&gt;+ run_program(command: String): Tuple&lt;/div&gt;&lt;div&gt;+ clear_history: Bool&lt;/div&gt;&lt;div&gt;+ save_config(runnable: FileInfo, args: List): Void&lt;/div&gt;&lt;div&gt;+ load_config(runnable: FileInfo): Dictionary&lt;br&gt;&lt;/div&gt;&lt;div&gt;+ save_main_runnables(): Void&lt;/div&gt;&lt;div&gt;+ load_main_runnables(): Void&lt;/div&gt;&lt;div&gt;- __filter_main_runnables(runnables: List): Void&lt;/div&gt;&lt;div&gt;+ set_runnable_main_property(runnable: FileInfo, currently_mian: Bool): Void&lt;/div&gt;&lt;div&gt;+ search_runnable(given_text: String): List&lt;/div&gt;&lt;div&gt;- &lt;u&gt;__searching_algorithm&lt;/u&gt;(given: String, runnables: List): List&lt;/div&gt;&lt;/div&gt;" style="text;strokeColor=none;fillColor=none;align=left;verticalAlign=top;spacingLeft=4;spacingRight=4;overflow=hidden;rotatable=0;points=[[0,0.5],[1,0.5]];portConstraint=eastwest;whiteSpace=wrap;html=1;" parent="OdxFn6sbGUlg3Z93NH0t-29" vertex="1">
          <mxGeometry y="94" width="277" height="271" as="geometry" />
        </mxCell>
        <mxCell id="OdxFn6sbGUlg3Z93NH0t-36" style="edgeStyle=orthogonalEdgeStyle;rounded=0;orthogonalLoop=1;jettySize=auto;html=1;endArrow=block;endFill=0;endSize=20;strokeColor=default;" parent="1" source="OdxFn6sbGUlg3Z93NH0t-18" target="OdxFn6sbGUlg3Z93NH0t-26" edge="1">
          <mxGeometry relative="1" as="geometry">
            <mxPoint x="-47.5" y="563" as="sourcePoint" />
            <mxPoint x="-47.5" y="473" as="targetPoint" />
          </mxGeometry>
        </mxCell>
        <mxCell id="OdxFn6sbGUlg3Z93NH0t-41" style="edgeStyle=orthogonalEdgeStyle;rounded=0;orthogonalLoop=1;jettySize=auto;html=1;endArrow=open;endFill=0;endSize=15;" parent="1" source="OdxFn6sbGUlg3Z93NH0t-14" target="OdxFn6sbGUlg3Z93NH0t-10" edge="1">
          <mxGeometry relative="1" as="geometry">
            <mxPoint x="1195" y="623" as="sourcePoint" />
            <mxPoint x="1351" y="623" as="targetPoint" />
            <Array as="points">
              <mxPoint x="1162" y="652" />
              <mxPoint x="1162" y="652" />
            </Array>
          </mxGeometry>
        </mxCell>
        <mxCell id="OdxFn6sbGUlg3Z93NH0t-42" style="edgeStyle=orthogonalEdgeStyle;rounded=0;orthogonalLoop=1;jettySize=auto;html=1;endArrow=diamondThin;endFill=0;endSize=25;" parent="1" source="OdxFn6sbGUlg3Z93NH0t-29" target="OdxFn6sbGUlg3Z93NH0t-14" edge="1">
          <mxGeometry relative="1" as="geometry">
            <mxPoint x="1003" y="643" as="sourcePoint" />
            <mxPoint x="841" y="643" as="targetPoint" />
            <Array as="points">
              <mxPoint x="729" y="770" />
            </Array>
          </mxGeometry>
        </mxCell>
        <mxCell id="_rFSp-jLz___89g0bqdM-1" style="edgeStyle=orthogonalEdgeStyle;rounded=0;orthogonalLoop=1;jettySize=auto;html=1;endArrow=open;endFill=0;endSize=15;dashed=1;dashPattern=8 8;" parent="1" edge="1">
          <mxGeometry relative="1" as="geometry">
            <mxPoint x="870.96" y="372" as="sourcePoint" />
            <mxPoint x="1026.96" y="372" as="targetPoint" />
            <Array as="points">
              <mxPoint x="943.96" y="372" />
              <mxPoint x="1026.96" y="373" />
            </Array>
          </mxGeometry>
        </mxCell>
      </root>
    </mxGraphModel>
  </diagram>
</mxfile>
